<svg width="21" height="22" viewBox="0 0 21 22" fill="none" xmlns="http://www.w3.org/2000/svg">
<path fill-rule="evenodd" clip-rule="evenodd" d="M6.89018 9.00007H3.10916C2.55437 8.99546 2.02047 9.21143 1.62492 9.60048C1.22937 9.98953 1.00458 10.5198 1 11.0746V18.9259C1.01026 20.0807 1.95438 21.0087 3.10916 20.9991H6.89018C7.44497 21.0037 7.97888 20.7877 8.37442 20.3987C8.76997 20.0096 8.99476 19.4794 8.99934 18.9246V11.0746C8.99476 10.5198 8.76997 9.98953 8.37442 9.60048C7.97888 9.21143 7.44497 8.99546 6.89018 9.00007Z" stroke="#333333" stroke-width="1.5" stroke-linecap="round" stroke-linejoin="round"/>
<path fill-rule="evenodd" clip-rule="evenodd" d="M6.89018 1.0008H3.10916C1.97759 0.969418 1.03411 1.85982 1 2.99131V4.3432C1.03411 5.47468 1.97759 6.36509 3.10916 6.3337H6.89018C8.02175 6.36509 8.96523 5.47468 8.99934 4.3432V2.99131C8.96523 1.85982 8.02175 0.969418 6.89018 1.0008Z" stroke="#333333" stroke-width="1.5" stroke-linecap="round" stroke-linejoin="round"/>
<path fill-rule="evenodd" clip-rule="evenodd" d="M13.7749 12.9997H17.5546C18.1096 13.0047 18.6439 12.7888 19.0397 12.3998C19.4356 12.0107 19.6605 11.4802 19.6651 10.9252V3.07518C19.6605 2.52039 19.4357 1.99014 19.0402 1.60109C18.6446 1.21204 18.1107 0.996067 17.556 1.00068H13.7749C13.2201 0.996067 12.6862 1.21204 12.2907 1.60109C11.8951 1.99014 11.6703 2.52039 11.6658 3.07518V10.9252C11.6703 11.48 11.8951 12.0102 12.2907 12.3993C12.6862 12.7883 13.2201 13.0043 13.7749 12.9997Z" stroke="#333333" stroke-width="1.5" stroke-linecap="round" stroke-linejoin="round"/>
<path fill-rule="evenodd" clip-rule="evenodd" d="M13.7749 20.9991H17.5546C18.6867 21.0312 19.631 20.1406 19.6651 19.0086V17.6567C19.631 16.5252 18.6875 15.6348 17.556 15.6662H13.7749C12.6434 15.6348 11.6999 16.5252 11.6658 17.6567V19.0073C11.6992 20.1393 12.6429 21.0305 13.7749 20.9991Z" stroke="#333333" stroke-width="1.5" stroke-linecap="round" stroke-linejoin="round"/>
</svg>
